# xmcd CD database file
#
# Track frame offsets:
#	150
#	16219
#	32236
#	47786
#	61606
#	74472
#	85355
#	100241
#	118383
#	130603
#	143518
#	158104
#	173696
#	187504
#	203553
#	217640
#	229137
#	242259
#	256223
#	269358
#
# Disc length: 3771 seconds
#
# Revision: 2
# Processed by: cddbd v1.5.2PL0 Copyright (c) Steve Scherf et al.
# Submitted via: CDex 1.51
#
DISCID=000eb914
DTITLE=Diverse artiesten cd 2 - Das Goldene ABC der Volksmusik
DYEAR=1900
DGENRE=Schlager
TTITLE0=Stefanie Hertel - Hast du Zeit für ein paar Träume
TTITLE1=Judith and Mel - Die zehn Gebote der Liebe
TTITLE2=Oswald Sattler - Ciao Maria ciao
TTITLE3=Katharina Hertz and Torsten Benkenstein - Addio
TTITLE4=Lydia Huber - Sag dankeschön mit roten Rosen
TTITLE5=Wolfgang Lindner u. .s. Stadlmusikanten - Musik und gute Laune
TTITLE6=Lolita - Denn mein Junge ist ein Seeman
TTITLE7=Monika Martin - La luna blu
TTITLE8=Die Mühlenhof Musikanten - Das da drob'n ist unser Stern
TTITLE9=Enst Mosch u. s. Original Egerländer Musikanten - Böhmischer  Leckerbissen
TTITLE10=Münchner Zwietracht - Juchuhe
TTITLE11=Teddy Parker - Ein Mutterherz soll niemals weinen
TTITLE12=Angela Wiedl - Doch des Herzklopf'n des verdank' I dir
TTITLE13=Walter Scholtz - Gondoletta
TTITLE14=Vico Torriani - Zähl' die Freunde nicht die Jahre
TTITLE15=Florian Silbereisen - Lustig samma
TTITLE16=Oliver Thomas - Ich kann kein Mädchen weinen sehen
TTITLE17=Turracher - Des moch I
TTITLE18=Die Zillertaler - Du bist so a lieber Kerl
TTITLE19=Die 3 Z'wiedern - Heit' ist mein Tag
EXTD=
EXTT0=
EXTT1=
EXTT2=
EXTT3=
EXTT4=
EXTT5=
EXTT6=
EXTT7=
EXTT8=
EXTT9=
EXTT10=
EXTT11=
EXTT12=
EXTT13=
EXTT14=
EXTT15=
EXTT16=
EXTT17=
EXTT18=
EXTT19=
PLAYORDER=
